<svg xmlns="http://www.w3.org/2000/svg" xmlns:xlink="http://www.w3.org/1999/xlink" version="1.1" id="Layer_1" x="0px" y="0px" width="512px" height="512.331px" viewBox="0 0 512 512.331" enable-background="new 0 0 512 512.331" xml:space="preserve">
<path d="M512,179.197L332.893,0c-9.291,9.125-16.225,19.195-20.788,30.217c-4.549,11.021-6.837,22.297-6.837,33.828  c0,11.358,2.288,22.545,6.893,33.573l-111.81,111.713c-9.401-4.866-19.175-8.533-29.335-10.993  c-10.152-2.461-20.464-3.694-30.926-3.694c-16.453,0-32.374,2.978-47.759,8.939c-15.391,5.962-29.127,14.949-41.21,26.983  l95.261,95.02l-61.143,70.372L39.37,451.566l-29.004,38.694c-6.741,9.953-10.111,16.501-10.111,19.63L0,511.242l0.51,0.248v0.841  l0.503-0.593l1.089,0.248c3.129,0,9.677-3.309,19.637-9.939l38.695-28.824l55.608-46.041l70.716-61.233l94.676,94.924  c12.089-12.076,21.091-25.819,27.032-41.203c5.927-15.398,8.891-31.278,8.891-47.683c0-10.504-1.227-20.843-3.652-30.961  c-2.427-10.132-6.121-19.933-11.028-29.376l111.713-111.72c11.015,4.535,22.208,6.803,33.566,6.803  c11.594,0,22.869-2.288,33.87-6.844C492.825,195.325,502.874,188.434,512,179.197z" fill="#999"/>
</svg>
